<mxfile host="app.diagrams.net" agent="Mozilla/5.0 (Windows NT 10.0; Win64; x64) AppleWebKit/537.36 (KHTML, like Gecko) Chrome/134.0.0.0 Safari/537.36" version="26.1.0">
  <diagram name="Страница — 1" id="FHahmwCRDLmdkqN1f6a9">
    <mxGraphModel dx="1816" dy="538" grid="1" gridSize="10" guides="1" tooltips="1" connect="1" arrows="1" fold="1" page="1" pageScale="1" pageWidth="827" pageHeight="1169" math="0" shadow="0">
      <root>
        <mxCell id="0" />
        <mxCell id="1" parent="0" />
        <mxCell id="MEDeWtWc0A7w0Op9NWJ7-1" value="Router" style="swimlane;fontStyle=0;childLayout=stackLayout;horizontal=1;startSize=30;horizontalStack=0;resizeParent=1;resizeParentMax=0;resizeLast=0;collapsible=1;marginBottom=0;whiteSpace=wrap;html=1;" vertex="1" parent="1">
          <mxGeometry x="320" y="260" width="140" height="60" as="geometry" />
        </mxCell>
        <mxCell id="MEDeWtWc0A7w0Op9NWJ7-2" value="route(string $url): string" style="text;strokeColor=none;fillColor=none;align=left;verticalAlign=middle;spacingLeft=4;spacingRight=4;overflow=hidden;points=[[0,0.5],[1,0.5]];portConstraint=eastwest;rotatable=0;whiteSpace=wrap;html=1;" vertex="1" parent="MEDeWtWc0A7w0Op9NWJ7-1">
          <mxGeometry y="30" width="140" height="30" as="geometry" />
        </mxCell>
        <mxCell id="MEDeWtWc0A7w0Op9NWJ7-5" value="HomeController" style="swimlane;fontStyle=0;childLayout=stackLayout;horizontal=1;startSize=30;horizontalStack=0;resizeParent=1;resizeParentMax=0;resizeLast=0;collapsible=1;marginBottom=0;whiteSpace=wrap;html=1;" vertex="1" parent="1">
          <mxGeometry y="340" width="140" height="60" as="geometry" />
        </mxCell>
        <mxCell id="MEDeWtWc0A7w0Op9NWJ7-6" value="get(): string" style="text;strokeColor=none;fillColor=none;align=left;verticalAlign=middle;spacingLeft=4;spacingRight=4;overflow=hidden;points=[[0,0.5],[1,0.5]];portConstraint=eastwest;rotatable=0;whiteSpace=wrap;html=1;" vertex="1" parent="MEDeWtWc0A7w0Op9NWJ7-5">
          <mxGeometry y="30" width="140" height="30" as="geometry" />
        </mxCell>
        <mxCell id="MEDeWtWc0A7w0Op9NWJ7-12" value="AboutController" style="swimlane;fontStyle=0;childLayout=stackLayout;horizontal=1;startSize=30;horizontalStack=0;resizeParent=1;resizeParentMax=0;resizeLast=0;collapsible=1;marginBottom=0;whiteSpace=wrap;html=1;" vertex="1" parent="1">
          <mxGeometry x="180" y="400" width="140" height="60" as="geometry" />
        </mxCell>
        <mxCell id="MEDeWtWc0A7w0Op9NWJ7-13" value="get(): string" style="text;strokeColor=none;fillColor=none;align=left;verticalAlign=middle;spacingLeft=4;spacingRight=4;overflow=hidden;points=[[0,0.5],[1,0.5]];portConstraint=eastwest;rotatable=0;whiteSpace=wrap;html=1;" vertex="1" parent="MEDeWtWc0A7w0Op9NWJ7-12">
          <mxGeometry y="30" width="140" height="30" as="geometry" />
        </mxCell>
        <mxCell id="MEDeWtWc0A7w0Op9NWJ7-14" value="ProductController" style="swimlane;fontStyle=0;childLayout=stackLayout;horizontal=1;startSize=30;horizontalStack=0;resizeParent=1;resizeParentMax=0;resizeLast=0;collapsible=1;marginBottom=0;whiteSpace=wrap;html=1;" vertex="1" parent="1">
          <mxGeometry x="460" y="400" width="140" height="60" as="geometry" />
        </mxCell>
        <mxCell id="MEDeWtWc0A7w0Op9NWJ7-15" value="get(string $id): string" style="text;strokeColor=none;fillColor=none;align=left;verticalAlign=middle;spacingLeft=4;spacingRight=4;overflow=hidden;points=[[0,0.5],[1,0.5]];portConstraint=eastwest;rotatable=0;whiteSpace=wrap;html=1;" vertex="1" parent="MEDeWtWc0A7w0Op9NWJ7-14">
          <mxGeometry y="30" width="140" height="30" as="geometry" />
        </mxCell>
        <mxCell id="MEDeWtWc0A7w0Op9NWJ7-16" value="BasketController" style="swimlane;fontStyle=0;childLayout=stackLayout;horizontal=1;startSize=30;horizontalStack=0;resizeParent=1;resizeParentMax=0;resizeLast=0;collapsible=1;marginBottom=0;whiteSpace=wrap;html=1;" vertex="1" parent="1">
          <mxGeometry x="640" y="340" width="140" height="60" as="geometry" />
        </mxCell>
        <mxCell id="MEDeWtWc0A7w0Op9NWJ7-17" value="add(): void" style="text;strokeColor=none;fillColor=none;align=left;verticalAlign=middle;spacingLeft=4;spacingRight=4;overflow=hidden;points=[[0,0.5],[1,0.5]];portConstraint=eastwest;rotatable=0;whiteSpace=wrap;html=1;" vertex="1" parent="MEDeWtWc0A7w0Op9NWJ7-16">
          <mxGeometry y="30" width="140" height="30" as="geometry" />
        </mxCell>
        <mxCell id="MEDeWtWc0A7w0Op9NWJ7-18" value="HomeTemplate" style="swimlane;fontStyle=0;childLayout=stackLayout;horizontal=1;startSize=30;horizontalStack=0;resizeParent=1;resizeParentMax=0;resizeLast=0;collapsible=1;marginBottom=0;whiteSpace=wrap;html=1;" vertex="1" parent="1">
          <mxGeometry x="-10" y="480" width="140" height="60" as="geometry" />
        </mxCell>
        <mxCell id="MEDeWtWc0A7w0Op9NWJ7-19" value="getTemplate(): string" style="text;strokeColor=none;fillColor=none;align=left;verticalAlign=middle;spacingLeft=4;spacingRight=4;overflow=hidden;points=[[0,0.5],[1,0.5]];portConstraint=eastwest;rotatable=0;whiteSpace=wrap;html=1;" vertex="1" parent="MEDeWtWc0A7w0Op9NWJ7-18">
          <mxGeometry y="30" width="140" height="30" as="geometry" />
        </mxCell>
        <mxCell id="MEDeWtWc0A7w0Op9NWJ7-20" value="AboutTemplate" style="swimlane;fontStyle=0;childLayout=stackLayout;horizontal=1;startSize=30;horizontalStack=0;resizeParent=1;resizeParentMax=0;resizeLast=0;collapsible=1;marginBottom=0;whiteSpace=wrap;html=1;" vertex="1" parent="1">
          <mxGeometry x="180" y="525" width="140" height="60" as="geometry" />
        </mxCell>
        <mxCell id="MEDeWtWc0A7w0Op9NWJ7-21" value="getTemplate(): string" style="text;strokeColor=none;fillColor=none;align=left;verticalAlign=middle;spacingLeft=4;spacingRight=4;overflow=hidden;points=[[0,0.5],[1,0.5]];portConstraint=eastwest;rotatable=0;whiteSpace=wrap;html=1;" vertex="1" parent="MEDeWtWc0A7w0Op9NWJ7-20">
          <mxGeometry y="30" width="140" height="30" as="geometry" />
        </mxCell>
        <mxCell id="MEDeWtWc0A7w0Op9NWJ7-22" value="ProductTemplate" style="swimlane;fontStyle=0;childLayout=stackLayout;horizontal=1;startSize=30;horizontalStack=0;resizeParent=1;resizeParentMax=0;resizeLast=0;collapsible=1;marginBottom=0;whiteSpace=wrap;html=1;" vertex="1" parent="1">
          <mxGeometry x="430" y="520" width="200" height="130" as="geometry" />
        </mxCell>
        <mxCell id="MEDeWtWc0A7w0Op9NWJ7-23" value="getCardTemplate(array $arr): string&lt;div&gt;getAllTemplate(array $arr): string&lt;/div&gt;" style="text;strokeColor=none;fillColor=none;align=left;verticalAlign=middle;spacingLeft=4;spacingRight=4;overflow=hidden;points=[[0,0.5],[1,0.5]];portConstraint=eastwest;rotatable=0;whiteSpace=wrap;html=1;" vertex="1" parent="MEDeWtWc0A7w0Op9NWJ7-22">
          <mxGeometry y="30" width="200" height="100" as="geometry" />
        </mxCell>
        <mxCell id="MEDeWtWc0A7w0Op9NWJ7-24" value="Product" style="swimlane;fontStyle=0;childLayout=stackLayout;horizontal=1;startSize=30;horizontalStack=0;resizeParent=1;resizeParentMax=0;resizeLast=0;collapsible=1;marginBottom=0;whiteSpace=wrap;html=1;" vertex="1" parent="1">
          <mxGeometry x="660" y="480" width="140" height="60" as="geometry" />
        </mxCell>
        <mxCell id="MEDeWtWc0A7w0Op9NWJ7-25" value="load(): array" style="text;strokeColor=none;fillColor=none;align=left;verticalAlign=middle;spacingLeft=4;spacingRight=4;overflow=hidden;points=[[0,0.5],[1,0.5]];portConstraint=eastwest;rotatable=0;whiteSpace=wrap;html=1;" vertex="1" parent="MEDeWtWc0A7w0Op9NWJ7-24">
          <mxGeometry y="30" width="140" height="30" as="geometry" />
        </mxCell>
        <mxCell id="MEDeWtWc0A7w0Op9NWJ7-26" value="BaseTemplate" style="swimlane;fontStyle=0;childLayout=stackLayout;horizontal=1;startSize=30;horizontalStack=0;resizeParent=1;resizeParentMax=0;resizeLast=0;collapsible=1;marginBottom=0;whiteSpace=wrap;html=1;" vertex="1" parent="1">
          <mxGeometry x="180" y="690" width="140" height="60" as="geometry" />
        </mxCell>
        <mxCell id="MEDeWtWc0A7w0Op9NWJ7-27" value="getTemplate(): string" style="text;strokeColor=none;fillColor=none;align=left;verticalAlign=middle;spacingLeft=4;spacingRight=4;overflow=hidden;points=[[0,0.5],[1,0.5]];portConstraint=eastwest;rotatable=0;whiteSpace=wrap;html=1;" vertex="1" parent="MEDeWtWc0A7w0Op9NWJ7-26">
          <mxGeometry y="30" width="140" height="30" as="geometry" />
        </mxCell>
        <mxCell id="MEDeWtWc0A7w0Op9NWJ7-33" value="" style="endArrow=none;html=1;rounded=0;startArrow=diamond;startFill=0;" edge="1" parent="1">
          <mxGeometry width="50" height="50" relative="1" as="geometry">
            <mxPoint x="389.66" y="320" as="sourcePoint" />
            <mxPoint x="390" y="370" as="targetPoint" />
          </mxGeometry>
        </mxCell>
        <mxCell id="MEDeWtWc0A7w0Op9NWJ7-34" value="" style="endArrow=none;html=1;rounded=0;exitX=1.016;exitY=-0.037;exitDx=0;exitDy=0;exitPerimeter=0;entryX=-0.021;entryY=0.055;entryDx=0;entryDy=0;entryPerimeter=0;" edge="1" parent="1" source="MEDeWtWc0A7w0Op9NWJ7-6" target="MEDeWtWc0A7w0Op9NWJ7-17">
          <mxGeometry width="50" height="50" relative="1" as="geometry">
            <mxPoint x="365" y="395" as="sourcePoint" />
            <mxPoint x="500" y="360" as="targetPoint" />
          </mxGeometry>
        </mxCell>
        <mxCell id="MEDeWtWc0A7w0Op9NWJ7-35" value="" style="endArrow=none;html=1;rounded=0;" edge="1" parent="1">
          <mxGeometry width="50" height="50" relative="1" as="geometry">
            <mxPoint x="250" y="400" as="sourcePoint" />
            <mxPoint x="250" y="370" as="targetPoint" />
          </mxGeometry>
        </mxCell>
        <mxCell id="MEDeWtWc0A7w0Op9NWJ7-36" value="" style="endArrow=none;html=1;rounded=0;" edge="1" parent="1">
          <mxGeometry width="50" height="50" relative="1" as="geometry">
            <mxPoint x="530" y="400" as="sourcePoint" />
            <mxPoint x="530" y="370" as="targetPoint" />
          </mxGeometry>
        </mxCell>
        <mxCell id="MEDeWtWc0A7w0Op9NWJ7-39" value="" style="endArrow=none;html=1;rounded=0;entryX=0.309;entryY=1.021;entryDx=0;entryDy=0;entryPerimeter=0;exitX=0.381;exitY=0.033;exitDx=0;exitDy=0;exitPerimeter=0;" edge="1" parent="1" source="MEDeWtWc0A7w0Op9NWJ7-18" target="MEDeWtWc0A7w0Op9NWJ7-6">
          <mxGeometry width="50" height="50" relative="1" as="geometry">
            <mxPoint x="40" y="480" as="sourcePoint" />
            <mxPoint x="90" y="430" as="targetPoint" />
          </mxGeometry>
        </mxCell>
        <mxCell id="MEDeWtWc0A7w0Op9NWJ7-40" value="" style="endArrow=none;html=1;rounded=0;entryX=0.5;entryY=1;entryDx=0;entryDy=0;entryPerimeter=0;" edge="1" parent="1" target="MEDeWtWc0A7w0Op9NWJ7-13">
          <mxGeometry width="50" height="50" relative="1" as="geometry">
            <mxPoint x="250" y="525" as="sourcePoint" />
            <mxPoint x="300" y="475" as="targetPoint" />
          </mxGeometry>
        </mxCell>
        <mxCell id="MEDeWtWc0A7w0Op9NWJ7-41" value="" style="endArrow=none;html=1;rounded=0;entryX=0.314;entryY=1.09;entryDx=0;entryDy=0;entryPerimeter=0;" edge="1" parent="1" target="MEDeWtWc0A7w0Op9NWJ7-15">
          <mxGeometry width="50" height="50" relative="1" as="geometry">
            <mxPoint x="505" y="520" as="sourcePoint" />
            <mxPoint x="555" y="470" as="targetPoint" />
          </mxGeometry>
        </mxCell>
        <mxCell id="MEDeWtWc0A7w0Op9NWJ7-42" value="" style="endArrow=none;html=1;rounded=0;entryX=0;entryY=0;entryDx=0;entryDy=0;exitX=0.999;exitY=1.021;exitDx=0;exitDy=0;exitPerimeter=0;" edge="1" parent="1" source="MEDeWtWc0A7w0Op9NWJ7-15" target="MEDeWtWc0A7w0Op9NWJ7-24">
          <mxGeometry width="50" height="50" relative="1" as="geometry">
            <mxPoint x="610" y="460" as="sourcePoint" />
            <mxPoint x="650" y="405" as="targetPoint" />
          </mxGeometry>
        </mxCell>
        <mxCell id="MEDeWtWc0A7w0Op9NWJ7-43" value="" style="endArrow=none;dashed=1;html=1;rounded=0;exitX=0;exitY=0;exitDx=0;exitDy=0;startArrow=block;startFill=0;" edge="1" parent="1" source="MEDeWtWc0A7w0Op9NWJ7-26">
          <mxGeometry width="50" height="50" relative="1" as="geometry">
            <mxPoint x="50" y="590" as="sourcePoint" />
            <mxPoint x="100" y="540" as="targetPoint" />
          </mxGeometry>
        </mxCell>
        <mxCell id="MEDeWtWc0A7w0Op9NWJ7-44" value="" style="endArrow=none;dashed=1;html=1;rounded=0;exitX=0.5;exitY=0;exitDx=0;exitDy=0;startArrow=block;startFill=0;" edge="1" parent="1" source="MEDeWtWc0A7w0Op9NWJ7-26">
          <mxGeometry width="50" height="50" relative="1" as="geometry">
            <mxPoint x="210" y="635" as="sourcePoint" />
            <mxPoint x="260" y="585" as="targetPoint" />
          </mxGeometry>
        </mxCell>
        <mxCell id="MEDeWtWc0A7w0Op9NWJ7-45" value="" style="endArrow=none;dashed=1;html=1;rounded=0;exitX=1;exitY=0;exitDx=0;exitDy=0;startArrow=block;startFill=0;" edge="1" parent="1" source="MEDeWtWc0A7w0Op9NWJ7-26">
          <mxGeometry width="50" height="50" relative="1" as="geometry">
            <mxPoint x="380" y="700" as="sourcePoint" />
            <mxPoint x="430" y="650" as="targetPoint" />
          </mxGeometry>
        </mxCell>
      </root>
    </mxGraphModel>
  </diagram>
</mxfile>
